<svg width="14" height="14" viewBox="0 0 14 14" fill="none" xmlns="http://www.w3.org/2000/svg">
<path d="M3.37732 2.04614C3.37732 2.91838 2.62128 3.62548 1.68866 3.62548C0.75604 3.62548 0 2.91838 0 2.04614C0 1.17388 0.75604 0.466797 1.68866 0.466797C2.62128 0.466797 3.37732 1.17388 3.37732 2.04614Z" fill="black"/>
<path d="M0.230957 4.78646H3.11754V13.5335H0.230957V4.78646Z" fill="#0D2F2B"/>
<path d="M7.76486 4.78648H4.87826V13.5336H7.76486C7.76486 13.5336 7.76486 10.7799 7.76486 9.05814C7.76486 8.02474 8.11772 6.98674 9.52565 6.98674C11.1169 6.98674 11.1073 8.33914 11.0999 9.38687C11.0901 10.7564 11.1133 12.154 11.1133 13.5336H13.9999V8.91707C13.9755 5.96927 13.2073 4.611 10.6803 4.611C9.17959 4.611 8.24939 5.2923 7.76486 5.90874V4.78648Z" fill="#0D2F2B"/>
</svg>
