<svg width="20" height="20" viewBox="0 0 20 20" fill="none" xmlns="http://www.w3.org/2000/svg">
<path d="M10 0C4.48583 0 0 4.48583 0 10C0 15.5142 4.48583 20 10 20C15.5142 20 20 15.5142 20 10C20 4.48583 15.5142 0 10 0ZM10 18.3333C5.405 18.3333 1.66667 14.595 1.66667 10C1.66667 8.755 1.94167 7.57333 2.43333 6.51083L4.16667 8.33333H6.66667L7.5 9.16667V10.8333L9.16667 12.5V15.8333H10.8333L13.3333 10.4167L10 8.33333H7.91667L6.66667 7.08333L7.91667 5.83333L9.58333 6.66667L10.4167 5.83333L9.16667 3.75C9.16667 3.75 9.78167 2.79333 10.5133 1.68333C13.24 1.85 15.6175 3.33333 17.0142 5.505L15 6.66667L15.8333 10L18.2467 11.1983C17.6642 15.2275 14.1875 18.3333 10 18.3333Z" fill="#0D2F2B"/>
</svg>
