<svg width="20" height="20" viewBox="0 0 20 20" fill="none" xmlns="http://www.w3.org/2000/svg">
<path d="M16.092 12.2085C15.4626 12.209 14.8429 12.3626 14.2862 12.6561C13.7294 12.9497 13.2525 13.3742 12.8965 13.8932L7.47855 11.4469C7.86337 10.5176 7.86486 9.47386 7.48271 8.54352L12.8932 6.08468C13.4208 6.84776 14.2044 7.39647 15.102 7.63127C15.9995 7.86607 16.9514 7.77141 17.7852 7.36446C18.6189 6.9575 19.2791 6.26522 19.6461 5.41317C20.0131 4.56112 20.0626 3.60575 19.7856 2.72035C19.5085 1.83495 18.9233 1.07817 18.1361 0.587281C17.3489 0.0963934 16.4118 -0.0960869 15.4948 0.0447544C14.5778 0.185596 13.7417 0.65043 13.1381 1.35494C12.5345 2.05945 12.2034 2.95697 12.2048 3.8847C12.2083 4.10428 12.2306 4.32316 12.2714 4.53895L6.51965 7.15262C5.96723 6.63506 5.27567 6.29014 4.52991 6.16022C3.78416 6.03031 3.01669 6.12106 2.32181 6.42134C1.62692 6.72161 1.03488 7.21832 0.61842 7.85045C0.201957 8.48258 -0.0207883 9.22259 -0.0224516 9.97958C-0.0241148 10.7366 0.195377 11.4775 0.609058 12.1115C1.02274 12.7455 1.61259 13.2448 2.30615 13.5481C2.99971 13.8514 3.76677 13.9455 4.51309 13.8189C5.2594 13.6923 5.95248 13.3504 6.50716 12.8353L12.2739 15.4389C12.2338 15.6545 12.2118 15.8731 12.2081 16.0924C12.208 16.8608 12.4357 17.6119 12.8625 18.2509C13.2893 18.8899 13.896 19.3879 14.6058 19.682C15.3157 19.9762 16.0969 20.0532 16.8505 19.9033C17.6041 19.7534 18.2964 19.3834 18.8397 18.8401C19.3831 18.2968 19.7531 17.6045 19.9029 16.8509C20.0528 16.0972 19.9758 15.3161 19.6817 14.6062C19.3875 13.8963 18.8895 13.2896 18.2505 12.8628C17.6116 12.436 16.8604 12.2083 16.092 12.2085ZM16.092 1.66475C16.5311 1.66458 16.9604 1.79464 17.3256 2.03847C17.6907 2.2823 17.9754 2.62896 18.1436 3.03458C18.3117 3.44021 18.3558 3.8866 18.2702 4.31728C18.1847 4.74796 17.9733 5.1436 17.6629 5.45415C17.3524 5.7647 16.9569 5.97621 16.5262 6.06194C16.0956 6.14766 15.6492 6.10375 15.2435 5.93575C14.8378 5.76775 14.491 5.48321 14.2471 5.11813C14.0031 4.75304 13.8729 4.3238 13.8729 3.8847C13.8733 3.29621 14.1072 2.73194 14.5233 2.31574C14.9393 1.89954 15.5035 1.66541 16.092 1.66475ZM3.88434 12.2085C3.44524 12.2086 3.01595 12.0786 2.65078 11.8348C2.2856 11.5909 2.00093 11.2443 1.83278 10.8386C1.66463 10.433 1.62055 9.98663 1.70611 9.55595C1.79167 9.12526 2.00304 8.72963 2.31347 8.41908C2.6239 8.10853 3.01946 7.89702 3.45011 7.81129C3.88076 7.72557 4.32716 7.76948 4.73286 7.93748C5.13855 8.10548 5.48531 8.39001 5.72927 8.7551C5.97324 9.12019 6.10346 9.54943 6.10346 9.98853C6.1028 10.5769 5.86882 11.1411 5.45282 11.5572C5.03682 11.9734 4.47276 12.2076 3.88434 12.2085ZM16.092 18.3123C15.6529 18.3123 15.2237 18.1821 14.8587 17.9382C14.4936 17.6942 14.2091 17.3475 14.041 16.9419C13.873 16.5363 13.829 16.0899 13.9147 15.6593C14.0004 15.2286 14.2118 14.8331 14.5223 14.5226C14.8327 14.2121 15.2283 14.0007 15.6589 13.9151C16.0895 13.8294 16.5359 13.8734 16.9415 14.0414C17.3472 14.2094 17.6939 14.4939 17.9378 14.859C18.1818 15.2241 18.3119 15.6533 18.3119 16.0924C18.3115 16.681 18.0775 17.2454 17.6613 17.6616C17.245 18.0778 16.6806 18.3119 16.092 18.3123Z" fill="#0D2F2B"/>
</svg>
