<svg width="32" height="44" viewBox="0 0 32 44" fill="none" xmlns="http://www.w3.org/2000/svg">
<path d="M7.25056 36.5578C6.57369 35.6554 5.76144 34.4458 4.9303 32.9923L30.2768 23.7778C28.7971 29.2464 26.4076 34.4489 24.3581 37.6693C17.1518 48.9895 12.0107 42.9098 7.25056 36.5578ZM1.14296 23.9267C0.141821 20.2504 -0.346157 16.1117 0.277196 11.7958C1.85761 0.808067 26.011 -6.72186 30.9506 8.89213C31.0418 9.18028 31.1237 9.47477 31.1993 9.77559L10.6475 12.4544C7.82039 12.8249 7.09944 14.0915 9.45118 14.9053L18.6378 18.075C20.0293 18.5563 20.108 19.4271 18.6378 19.7754L1.14296 23.9267ZM31.4606 11.0865C31.7848 13.1511 31.7565 15.4214 31.4763 17.7615C31.3598 17.7203 31.2402 17.6823 31.1143 17.6507L17.2336 13.949C16.4812 13.7495 16.5095 13.2682 17.2336 13.1637L31.4606 11.0865Z" fill="#6FD46F"/>
</svg>
