<svg width="88" height="28" viewBox="0 0 88 28" fill="none" xmlns="http://www.w3.org/2000/svg">
<path d="M36.4467 1.13928L29.2719 26.9716H23.1989L18.3789 8.57738L13.3386 26.9716L7.30341 27.0096L0.386719 1.13928H5.90559L10.4296 21.199L15.6557 1.13928H21.395L26.3283 21.0882L30.8901 1.13928H36.4467ZM54.3665 13.7229C55.8147 13.9953 57.0016 14.7235 57.9366 15.9047C58.8685 17.0921 59.3345 18.4473 59.3345 19.9768C59.3345 21.3605 58.9976 22.5733 58.3207 23.6214C57.647 24.6727 56.6711 25.4928 55.396 26.0849C54.121 26.6771 52.613 26.9716 50.872 26.9716H39.7933V1.13928H50.3903C52.1344 1.13928 53.6361 1.42426 54.8986 1.99106C56.1642 2.55787 57.1181 3.34632 57.7698 4.3596C58.4183 5.36972 58.7457 6.51915 58.7457 7.80159C58.7457 9.30567 58.3459 10.5659 57.5494 11.576C56.7529 12.5862 55.6919 13.3018 54.3665 13.7229ZM44.947 11.7977H49.6568C50.8814 11.7977 51.8259 11.5191 52.4902 10.9649C53.1513 10.4108 53.4819 9.61282 53.4819 8.57738C53.4819 7.54193 53.1513 6.74081 52.4902 6.17401C51.8259 5.60404 50.8814 5.32222 49.6568 5.32222H44.947V11.7977ZM50.1353 22.7538C51.3851 22.7538 52.3611 22.4561 53.06 21.864C53.7589 21.2719 54.1084 20.4327 54.1084 19.3466C54.1084 18.2384 53.74 17.3676 53.0033 16.7374C52.2698 16.1105 51.275 15.7938 50.0251 15.7938H44.947V22.7538H50.1353ZM81.3376 8.90986C80.7488 7.82692 79.9397 7.00046 78.9103 6.43049C77.8808 5.86369 76.6782 5.58187 75.3024 5.58187C73.7818 5.58187 72.4343 5.92702 71.2569 6.61732C70.0794 7.30761 69.1601 8.29556 68.4959 9.57799C67.8347 10.8604 67.501 12.3423 67.501 14.0174C67.501 15.7463 67.841 17.2504 68.5147 18.5328C69.1885 19.8153 70.1267 20.8032 71.3293 21.4935C72.5319 22.187 73.9297 22.5321 75.5227 22.5321C77.4873 22.5321 79.0929 22.0065 80.3459 20.9584C81.5957 19.9103 82.4174 18.4473 82.8109 16.5728H73.9801V12.6115H87.8891V17.1269C87.5459 18.9287 86.8092 20.5942 85.679 22.1237C84.5519 23.6531 83.0974 24.8817 81.3187 25.8063C79.5399 26.7309 77.5471 27.1932 75.3401 27.1932C72.8625 27.1932 70.6241 26.6327 68.6249 25.5086C66.6258 24.3877 65.0548 22.8266 63.9152 20.8286C62.7755 18.8305 62.2025 16.5601 62.2025 14.0174C62.2025 11.4779 62.7755 9.20118 63.9152 7.19045C65.0548 5.17973 66.6258 3.61231 68.6249 2.49137C70.6241 1.36726 72.8499 0.806793 75.3024 0.806793C78.1988 0.806793 80.7111 1.51609 82.8456 2.93468C84.9801 4.35327 86.4535 6.345 87.2626 8.90986H81.3376Z" fill="#0D2F2B"/>
</svg>
